<?xml version="1.0" encoding="UTF-8" standalone="no"?>
<!-- Generator: Gravit.io -->

<svg
   xmlns:dc="http://purl.org/dc/elements/1.1/"
   xmlns:cc="http://creativecommons.org/ns#"
   xmlns:rdf="http://www.w3.org/1999/02/22-rdf-syntax-ns#"
   xmlns:svg="http://www.w3.org/2000/svg"
   xmlns="http://www.w3.org/2000/svg"
   xmlns:sodipodi="http://sodipodi.sourceforge.net/DTD/sodipodi-0.dtd"
   xmlns:inkscape="http://www.inkscape.org/namespaces/inkscape"
   style="isolation:isolate"
   viewBox="0 0 554.98816 520.30535"
   width="554.98816pt"
   height="520.30536pt"
   version="1.1"
   id="svg37"
   sodipodi:docname="hamburger.svg"
   inkscape:version="0.92.3 (2405546, 2018-03-11)">
  <metadata
     id="metadata41">
    <rdf:RDF>
      <cc:Work
         rdf:about="">
        <dc:format>image/svg+xml</dc:format>
        <dc:type
           rdf:resource="http://purl.org/dc/dcmitype/StillImage" />
      </cc:Work>
    </rdf:RDF>
  </metadata>
  <sodipodi:namedview
     pagecolor="#ffffff"
     bordercolor="#666666"
     borderopacity="1"
     objecttolerance="10"
     gridtolerance="10"
     guidetolerance="10"
     inkscape:pageopacity="0"
     inkscape:pageshadow="2"
     inkscape:window-width="721"
     inkscape:window-height="480"
     id="namedview39"
     showgrid="false"
     inkscape:zoom="0.21024124"
     inkscape:cx="368.61795"
     inkscape:cy="330.48934"
     inkscape:window-x="0"
     inkscape:window-y="27"
     inkscape:window-maximized="0"
     inkscape:current-layer="svg37" />
  <defs
     id="defs5">
    <clipPath
       id="_clipPath_H9N8RAOHLe8HT3nUNCEGvxUqzTXDNUCl">
      <rect
         width="595.276"
         height="841.89001"
         id="rect2"
         x="0"
         y="0" />
    </clipPath>
  </defs>
  <g
     clip-path="url(#_clipPath_H9N8RAOHLe8HT3nUNCEGvxUqzTXDNUCl)"
     id="g35"
     transform="translate(-21.174536,-148.50668)">
    <g
       id="g33">
      <path
         d="M 86.027,379.848 Q 42.175,355.055 34.932,319.378 c -7.244,-35.676 53.306,-96.717 90.618,-116.572 68.477,-36.439 50.142,-34.152 107.379,-47.346 q 81.038,-18.68 218.176,16.729 92.271,47.438 104.252,97.787 c 11.981,50.349 -6.185,69.458 -38.161,84.5 -31.976,15.042 -164.871,35.307 -190.111,35.561 -25.241,0.254 -181.166,12.339 -241.058,-10.189 z"
         stroke-miterlimit="3"
         id="path7"
         inkscape:connector-curvature="0"
         style="vector-effect:non-scaling-stroke;fill:#000000;stroke:#000000;stroke-width:1;stroke-linecap:square;stroke-linejoin:miter;stroke-miterlimit:3" />
      <line
         x1="339.99399"
         y1="216.27"
         x2="316.13101"
         y2="188.196"
         stroke-miterlimit="3"
         id="line9"
         style="vector-effect:non-scaling-stroke;stroke:#ce3131;stroke-width:1;stroke-linecap:square;stroke-linejoin:miter;stroke-miterlimit:3" />
      <line
         x1="115.755"
         y1="270.74799"
         x2="96.080002"
         y2="243.69501"
         stroke-miterlimit="3"
         id="line11"
         style="vector-effect:non-scaling-stroke;stroke:#ce3131;stroke-width:1;stroke-linecap:square;stroke-linejoin:miter;stroke-miterlimit:3" />
      <line
         x1="438.76901"
         y1="274.75601"
         x2="465.79901"
         y2="292.02701"
         stroke-miterlimit="3"
         id="line13"
         style="vector-effect:non-scaling-stroke;stroke:#ce3131;stroke-width:1;stroke-linecap:square;stroke-linejoin:miter;stroke-miterlimit:3" />
      <path
         d="m 48.814,493.117 c -4.276,-18.235 56.564,17.215 88.536,17.215 q 31.971,0 115.588,0 78.698,2.459 98.373,-4.919 c 19.674,-7.378 113.129,-4.918 137.722,-19.674 q 24.593,-14.756 54.105,-27.053 51.646,22.134 9.837,46.727 c -41.808,24.594 -147.559,46.727 -184.449,44.268 -36.89,-2.459 -110.67,2.459 -145.1,0 C 188.995,547.222 121.166,536.544 95.541,534.925 56.602,532.466 51.702,505.432 48.814,493.117 Z"
         stroke-miterlimit="3"
         id="path15"
         inkscape:connector-curvature="0"
         style="vector-effect:non-scaling-stroke;fill:#ce3131;stroke:#ce3131;stroke-width:1;stroke-linecap:square;stroke-linejoin:miter;stroke-miterlimit:3" />
      <path
         d="m 41.367,389.074 c -4.395,-18.207 56.676,16.845 88.646,16.636 q 31.971,-0.209 115.586,-0.755 78.713,1.945 98.339,-5.562 c 19.626,-7.506 113.094,-5.658 137.59,-20.574 q 24.496,-14.916 53.927,-27.406 51.79,21.796 10.143,46.662 c -41.647,24.866 -147.251,47.691 -184.156,45.473 -36.905,-2.219 -110.651,3.182 -145.097,0.948 C 181.899,442.262 114.001,432.027 88.366,430.576 49.412,428.371 44.335,401.37 41.367,389.074 Z"
         stroke-miterlimit="3"
         id="path17"
         inkscape:connector-curvature="0"
         style="vector-effect:non-scaling-stroke;fill:#ce3131;stroke:#ce3131;stroke-width:1;stroke-linecap:square;stroke-linejoin:miter;stroke-miterlimit:3" />
      <path
         d="m 110.297,557.643 q 83.617,14.756 113.129,14.756 c 29.512,0 120.507,7.378 150.019,2.459 29.511,-4.919 105.751,-19.675 122.966,-24.593 17.215,-4.919 54.105,-61.483 59.024,-9.838 4.918,51.646 12.296,49.187 -7.378,71.321 -19.675,22.134 -71.321,31.971 -103.292,41.808 -31.971,9.838 -90.995,14.756 -135.263,14.756 -44.268,0 -127.885,-2.459 -162.315,-9.837 -34.431,-7.378 -59.024,-9.837 -73.78,-24.593 C 58.651,619.126 56.192,619.126 53.733,587.155 q -2.46,-31.972 9.837,-36.89 12.297,0 46.727,7.378 z"
         stroke-miterlimit="3"
         id="path19"
         inkscape:connector-curvature="0"
         style="vector-effect:non-scaling-stroke;fill:#000000;stroke:#000000;stroke-width:1;stroke-linecap:square;stroke-linejoin:miter;stroke-miterlimit:3" />
      <path
         d="m 41.436,426.715 q -36.89,14.756 -4.919,29.512 c 31.972,14.756 9.838,2.459 22.134,19.674 12.297,17.216 0,24.594 29.512,9.838 29.512,-14.756 19.675,-24.594 46.727,-12.297 27.053,12.297 2.46,9.837 39.349,14.756 36.89,4.919 24.594,-22.134 59.024,-9.837 34.431,12.296 12.297,4.918 54.105,14.756 41.809,9.837 27.053,17.215 68.861,0 41.809,-17.216 61.483,-4.919 98.373,0 36.89,4.918 -31.971,-19.675 44.268,-39.349 76.239,-19.675 29.512,9.837 61.483,-17.216 31.971,-27.052 7.378,-44.268 -14.756,-27.052 -22.134,17.215 -9.837,4.918 -36.89,17.215 -27.052,12.297 -31.971,7.378 -59.023,19.675 -27.053,12.296 -41.809,12.296 -83.617,12.296 -41.809,0 -68.861,2.459 -103.292,2.459 -34.43,0 -61.483,-7.377 -100.832,-9.837 -39.349,-2.459 -78.698,-9.837 -93.454,-7.378 q -14.756,2.46 -27.053,-17.215 z"
         stroke-miterlimit="3"
         id="path21"
         inkscape:connector-curvature="0"
         style="vector-effect:non-scaling-stroke;fill:#000000;stroke:#000000;stroke-width:1;stroke-linecap:square;stroke-linejoin:miter;stroke-miterlimit:3" />
      <line
         x1="319.82401"
         y1="316.73499"
         x2="318.77899"
         y2="283.47198"
         stroke-miterlimit="3"
         id="line23"
         style="vector-effect:non-scaling-stroke;stroke:#ce3131;stroke-width:1;stroke-linecap:square;stroke-linejoin:miter;stroke-miterlimit:3" />
      <path
         d="m 187.32,309.835 c -7.76,6.122 -14.281,-2.841 -19.617,-26.945 q 37.419,12.902 19.617,26.945 z"
         stroke-miterlimit="3"
         id="path25"
         inkscape:connector-curvature="0"
         style="vector-effect:non-scaling-stroke;fill:#ce3131;stroke:#ce3131;stroke-width:1;stroke-linecap:square;stroke-linejoin:miter;stroke-miterlimit:3" />
      <line
         x1="161.33099"
         y1="204.82001"
         x2="147.293"
         y2="229.755"
         stroke-miterlimit="3"
         id="line27"
         style="vector-effect:non-scaling-stroke;stroke:#ce3131;stroke-width:1;stroke-linecap:square;stroke-linejoin:miter;stroke-miterlimit:3" />
      <line
         x1="418.146"
         y1="198.946"
         x2="435.35001"
         y2="220.42799"
         stroke-miterlimit="3"
         id="line29"
         style="vector-effect:non-scaling-stroke;stroke:#ce3131;stroke-width:1;stroke-linecap:square;stroke-linejoin:miter;stroke-miterlimit:3" />
      <line
         x1="234.532"
         y1="247.97"
         x2="244.717"
         y2="214.70799"
         stroke-miterlimit="3"
         id="line31"
         style="vector-effect:non-scaling-stroke;stroke:#ce3131;stroke-width:1;stroke-linecap:square;stroke-linejoin:miter;stroke-miterlimit:3" />
    </g>
  </g>
</svg>
