<?xml version="1.0" encoding="UTF-8" standalone="no"?><!-- Generator: Gravit.io --><svg xmlns="http://www.w3.org/2000/svg" xmlns:xlink="http://www.w3.org/1999/xlink" style="isolation:isolate" viewBox="0 0 595.276 841.89" width="595.276pt" height="841.89pt"><defs><clipPath id="_clipPath_H9N8RAOHLe8HT3nUNCEGvxUqzTXDNUCl"><rect width="595.276" height="841.89"/></clipPath></defs><g clip-path="url(#_clipPath_H9N8RAOHLe8HT3nUNCEGvxUqzTXDNUCl)"><g><path d=" M 86.027 379.848 Q 42.175 355.055 34.932 319.378 C 27.688 283.702 88.238 222.661 125.55 202.806 C 194.027 166.367 175.692 168.654 232.929 155.46 Q 313.967 136.78 451.105 172.189 Q 543.376 219.627 555.357 269.976 C 567.338 320.325 549.172 339.434 517.196 354.476 C 485.22 369.518 352.325 389.783 327.085 390.037 C 301.844 390.291 145.919 402.376 86.027 379.848 Z " fill="rgb(0,0,0)" vector-effect="non-scaling-stroke" stroke-width="1" stroke="rgb(0,0,0)" stroke-linejoin="miter" stroke-linecap="square" stroke-miterlimit="3"/><line x1="339.994" y1="216.27" x2="316.131" y2="188.196" vector-effect="non-scaling-stroke" stroke-width="1" stroke="rgb(206,49,49)" stroke-linejoin="miter" stroke-linecap="square" stroke-miterlimit="3"/><line x1="115.755" y1="270.748" x2="96.08" y2="243.695" vector-effect="non-scaling-stroke" stroke-width="1" stroke="rgb(206,49,49)" stroke-linejoin="miter" stroke-linecap="square" stroke-miterlimit="3"/><line x1="438.769" y1="274.756" x2="465.799" y2="292.027" vector-effect="non-scaling-stroke" stroke-width="1" stroke="rgb(206,49,49)" stroke-linejoin="miter" stroke-linecap="square" stroke-miterlimit="3"/><path d=" M 48.814 493.117 C 44.538 474.882 105.378 510.332 137.35 510.332 Q 169.321 510.332 252.938 510.332 Q 331.636 512.791 351.311 505.413 C 370.985 498.035 464.44 500.495 489.033 485.739 Q 513.626 470.983 543.138 458.686 Q 594.784 480.82 552.975 505.413 C 511.167 530.007 405.416 552.14 368.526 549.681 C 331.636 547.222 257.856 552.14 223.426 549.681 C 188.995 547.222 121.166 536.544 95.541 534.925 C 56.602 532.466 51.702 505.432 48.814 493.117 Z " fill="rgb(206,49,49)" vector-effect="non-scaling-stroke" stroke-width="1" stroke="rgb(206,49,49)" stroke-linejoin="miter" stroke-linecap="square" stroke-miterlimit="3"/><path d=" M 41.367 389.074 C 36.972 370.867 98.043 405.919 130.013 405.71 Q 161.984 405.501 245.599 404.955 Q 324.312 406.9 343.938 399.393 C 363.564 391.887 457.032 393.735 481.528 378.819 Q 506.024 363.903 535.455 351.413 Q 587.245 373.209 545.598 398.075 C 503.951 422.941 398.347 445.766 361.442 443.548 C 324.537 441.329 250.791 446.73 216.345 444.496 C 181.899 442.262 114.001 432.027 88.366 430.576 C 49.412 428.371 44.335 401.37 41.367 389.074 Z " fill="rgb(206,49,49)" vector-effect="non-scaling-stroke" stroke-width="1" stroke="rgb(206,49,49)" stroke-linejoin="miter" stroke-linecap="square" stroke-miterlimit="3"/><path d=" M 110.297 557.643 Q 193.914 572.399 223.426 572.399 C 252.938 572.399 343.933 579.777 373.445 574.858 C 402.956 569.939 479.196 555.183 496.411 550.265 C 513.626 545.346 550.516 488.782 555.435 540.427 C 560.353 592.073 567.731 589.614 548.057 611.748 C 528.382 633.882 476.736 643.719 444.765 653.556 C 412.794 663.394 353.77 668.312 309.502 668.312 C 265.234 668.312 181.617 665.853 147.187 658.475 C 112.756 651.097 88.163 648.638 73.407 633.882 C 58.651 619.126 56.192 619.126 53.733 587.155 Q 51.273 555.183 63.57 550.265 Q 75.867 550.265 110.297 557.643 Z " fill="rgb(0,0,0)" vector-effect="non-scaling-stroke" stroke-width="1" stroke="rgb(0,0,0)" stroke-linejoin="miter" stroke-linecap="square" stroke-miterlimit="3"/><path d=" M 41.436 426.715 Q 4.546 441.471 36.517 456.227 C 68.489 470.983 46.355 458.686 58.651 475.901 C 70.948 493.117 58.651 500.495 88.163 485.739 C 117.675 470.983 107.838 461.145 134.89 473.442 C 161.943 485.739 137.35 483.279 174.239 488.198 C 211.129 493.117 198.833 466.064 233.263 478.361 C 267.694 490.657 245.56 483.279 287.368 493.117 C 329.177 502.954 314.421 510.332 356.229 493.117 C 398.038 475.901 417.712 488.198 454.602 493.117 C 491.492 498.035 422.631 473.442 498.87 453.768 C 575.109 434.093 528.382 463.605 560.353 436.552 C 592.324 409.5 567.731 392.284 545.597 409.5 C 523.463 426.715 535.76 414.418 508.707 426.715 C 481.655 439.012 476.736 434.093 449.684 446.39 C 422.631 458.686 407.875 458.686 366.067 458.686 C 324.258 458.686 297.206 461.145 262.775 461.145 C 228.345 461.145 201.292 453.768 161.943 451.308 C 122.594 448.849 83.245 441.471 68.489 443.93 Q 53.733 446.39 41.436 426.715 Z " fill="rgb(0,0,0)" vector-effect="non-scaling-stroke" stroke-width="1" stroke="rgb(0,0,0)" stroke-linejoin="miter" stroke-linecap="square" stroke-miterlimit="3"/><line x1="319.824" y1="316.735" x2="318.779" y2="283.472" vector-effect="non-scaling-stroke" stroke-width="1" stroke="rgb(206,49,49)" stroke-linejoin="miter" stroke-linecap="square" stroke-miterlimit="3"/><path d=" M 187.32 309.835 C 179.56 315.957 173.039 306.994 167.703 282.89 Q 205.122 295.792 187.32 309.835 Z " fill="rgb(206,49,49)" vector-effect="non-scaling-stroke" stroke-width="1" stroke="rgb(206,49,49)" stroke-linejoin="miter" stroke-linecap="square" stroke-miterlimit="3"/><line x1="161.331" y1="204.82" x2="147.293" y2="229.755" vector-effect="non-scaling-stroke" stroke-width="1" stroke="rgb(206,49,49)" stroke-linejoin="miter" stroke-linecap="square" stroke-miterlimit="3"/><line x1="418.146" y1="198.946" x2="435.35" y2="220.428" vector-effect="non-scaling-stroke" stroke-width="1" stroke="rgb(206,49,49)" stroke-linejoin="miter" stroke-linecap="square" stroke-miterlimit="3"/><line x1="234.532" y1="247.97" x2="244.717" y2="214.708" vector-effect="non-scaling-stroke" stroke-width="1" stroke="rgb(206,49,49)" stroke-linejoin="miter" stroke-linecap="square" stroke-miterlimit="3"/></g></g></svg>