<?xml version="1.0" encoding="UTF-8" standalone="no"?>
<!-- Generator: Gravit.io -->

<svg
   xmlns:dc="http://purl.org/dc/elements/1.1/"
   xmlns:cc="http://creativecommons.org/ns#"
   xmlns:rdf="http://www.w3.org/1999/02/22-rdf-syntax-ns#"
   xmlns:svg="http://www.w3.org/2000/svg"
   xmlns="http://www.w3.org/2000/svg"
   xmlns:sodipodi="http://sodipodi.sourceforge.net/DTD/sodipodi-0.dtd"
   xmlns:inkscape="http://www.inkscape.org/namespaces/inkscape"
   style="isolation:isolate"
   viewBox="0 0 579.54706 519.307"
   width="579.54706pt"
   height="519.30701pt"
   version="1.1"
   id="svg21"
   sodipodi:docname="kawa.svg"
   inkscape:version="0.92.3 (2405546, 2018-03-11)">
  <metadata
     id="metadata25">
    <rdf:RDF>
      <cc:Work
         rdf:about="">
        <dc:format>image/svg+xml</dc:format>
        <dc:type
           rdf:resource="http://purl.org/dc/dcmitype/StillImage" />
      </cc:Work>
    </rdf:RDF>
  </metadata>
  <sodipodi:namedview
     pagecolor="#ffffff"
     bordercolor="#666666"
     borderopacity="1"
     objecttolerance="10"
     gridtolerance="10"
     guidetolerance="10"
     inkscape:pageopacity="0"
     inkscape:pageshadow="2"
     inkscape:window-width="721"
     inkscape:window-height="480"
     id="namedview23"
     showgrid="false"
     inkscape:zoom="0.21024124"
     inkscape:cx="208.89033"
     inkscape:cy="354.48268"
     inkscape:window-x="0"
     inkscape:window-y="27"
     inkscape:window-maximized="0"
     inkscape:current-layer="svg21" />
  <defs
     id="defs5">
    <clipPath
       id="_clipPath_XCF7ha6BZehY7AnVKQnMAXb6N6aZa1ma">
      <rect
         width="595.276"
         height="841.89001"
         id="rect2"
         x="0"
         y="0" />
    </clipPath>
  </defs>
  <g
     clip-path="url(#_clipPath_XCF7ha6BZehY7AnVKQnMAXb6N6aZa1ma)"
     id="g19"
     transform="translate(-9.9897351,-167.5)">
    <g
       id="g17">
      <g
         id="g9">
        <path
           d="m 76.129,626.903 c 4.476,26.856 59.404,59.404 225.239,59.404 91.581,0 242.565,-49.503 245.04,-66.829 2.475,-17.326 0,-42.078 -79.205,-49.503 -79.205,-7.426 -245.04,0 -284.642,2.475 -39.603,2.475 -111.382,24.751 -106.432,54.453 z"
           stroke-miterlimit="3"
           id="path7"
           inkscape:connector-curvature="0"
           style="vector-effect:non-scaling-stroke;fill:#000000;stroke:#000000;stroke-width:1;stroke-linecap:square;stroke-linejoin:miter;stroke-miterlimit:3" />
      </g>
      <path
         d="m 153.228,619.995 c 2.946,17.67 39.086,39.085 148.198,39.085 60.257,0 159.598,-32.571 161.227,-43.971 1.628,-11.399 0,-27.685 -52.114,-32.571 -52.113,-4.885 -161.226,0 -187.283,1.629 -26.057,1.628 -73.285,16.285 -70.028,35.828 z"
         stroke-miterlimit="3"
         id="path11"
         inkscape:connector-curvature="0"
         style="vector-effect:non-scaling-stroke;fill:#000000;stroke:#ce3131;stroke-width:3;stroke-linecap:square;stroke-linejoin:miter;stroke-miterlimit:3" />
      <path
         d="m 100.881,198.702 q -84.155,32.177 -89.106,76.73 c -4.95,44.552 56.929,175.735 79.205,207.912 22.276,32.177 51.978,91.581 86.63,108.907 34.653,17.326 96.531,42.078 155.935,29.702 59.404,-12.376 79.205,-29.702 106.432,-54.453 27.226,-24.752 76.729,-91.581 86.63,-121.283 9.901,-29.702 73.414,-189.232 59.404,-207.913 C 571.16,218.503 566.209,201.177 519.181,186.326 489.987,177.107 390.474,169 348.396,169 c -42.078,0 -170.786,0 -247.515,29.702 z"
         stroke-miterlimit="3"
         id="path13"
         inkscape:connector-curvature="0"
         style="vector-effect:non-scaling-stroke;fill:#000000;stroke:#ce3131;stroke-width:3;stroke-linecap:square;stroke-linejoin:miter;stroke-miterlimit:3" />
      <path
         d="m 63.753,258.105 c -17.319,23.092 4.951,29.702 59.404,47.028 54.453,17.326 138.609,27.227 198.012,24.752 39.873,-1.661 106.509,-17.82 150.507,-34.253 21.552,-8.05 37.672,-16.165 42.555,-22.676 14.851,-19.801 51.922,-38.596 -14.851,-51.978 -93.339,-18.706 -184.963,-25.953 -287.117,-9.9 Q 71.179,248.205 63.753,258.105 Z"
         stroke-miterlimit="3"
         id="path15"
         inkscape:connector-curvature="0"
         style="vector-effect:non-scaling-stroke;fill:#ce3131;stroke:#ce3131;stroke-width:1;stroke-linecap:square;stroke-linejoin:miter;stroke-miterlimit:3" />
    </g>
  </g>
</svg>
