<?xml version="1.0" encoding="UTF-8" standalone="no"?><!-- Generator: Gravit.io --><svg xmlns="http://www.w3.org/2000/svg" xmlns:xlink="http://www.w3.org/1999/xlink" style="isolation:isolate" viewBox="0 0 595.276 841.89" width="595.276pt" height="841.89pt"><defs><clipPath id="_clipPath_XCF7ha6BZehY7AnVKQnMAXb6N6aZa1ma"><rect width="595.276" height="841.89"/></clipPath></defs><g clip-path="url(#_clipPath_XCF7ha6BZehY7AnVKQnMAXb6N6aZa1ma)"><g><g><path d=" M 76.129 626.903 C 80.605 653.759 135.533 686.307 301.368 686.307 C 392.949 686.307 543.933 636.804 546.408 619.478 C 548.883 602.152 546.408 577.4 467.203 569.975 C 387.998 562.549 222.163 569.975 182.561 572.45 C 142.958 574.925 71.179 597.201 76.129 626.903 Z " fill="rgb(0,0,0)" vector-effect="non-scaling-stroke" stroke-width="1" stroke="rgb(0,0,0)" stroke-linejoin="miter" stroke-linecap="square" stroke-miterlimit="3"/></g><path d=" M 153.228 619.995 C 156.174 637.665 192.314 659.08 301.426 659.08 C 361.683 659.08 461.024 626.509 462.653 615.109 C 464.281 603.71 462.653 587.424 410.539 582.538 C 358.426 577.653 249.313 582.538 223.256 584.167 C 197.199 585.795 149.971 600.452 153.228 619.995 Z " fill="rgb(0,0,0)" vector-effect="non-scaling-stroke" stroke-width="3" stroke="rgb(206,49,49)" stroke-linejoin="miter" stroke-linecap="square" stroke-miterlimit="3"/><path d=" M 100.881 198.702 Q 16.726 230.879 11.775 275.432 C 6.825 319.984 68.704 451.167 90.98 483.344 C 113.256 515.521 142.958 574.925 177.61 592.251 C 212.263 609.577 274.141 634.329 333.545 621.953 C 392.949 609.577 412.75 592.251 439.977 567.5 C 467.203 542.748 516.706 475.919 526.607 446.217 C 536.508 416.515 600.021 256.985 586.011 238.304 C 571.16 218.503 566.209 201.177 519.181 186.326 C 489.987 177.107 390.474 169 348.396 169 C 306.318 169 177.61 169 100.881 198.702 Z " fill="rgb(0,0,0)" vector-effect="non-scaling-stroke" stroke-width="3" stroke="rgb(206,49,49)" stroke-linejoin="miter" stroke-linecap="square" stroke-miterlimit="3"/><path d=" M 63.753 258.105 C 46.434 281.197 68.704 287.807 123.157 305.133 C 177.61 322.459 261.766 332.36 321.169 329.885 C 361.042 328.224 427.678 312.065 471.676 295.632 C 493.228 287.582 509.348 279.467 514.231 272.956 C 529.082 253.155 566.153 234.36 499.38 220.978 C 406.041 202.272 314.417 195.025 212.263 211.078 Q 71.179 248.205 63.753 258.105 Z " fill="rgb(206,49,49)" vector-effect="non-scaling-stroke" stroke-width="1" stroke="rgb(206,49,49)" stroke-linejoin="miter" stroke-linecap="square" stroke-miterlimit="3"/></g></g></svg>