<svg width="384.276" height="121.89" xmlns="http://www.w3.org/2000/svg">
 <defs>
  <clipPath id="_clipPath_LLpvIslJZnL94rLkyiZEEOkrFG30Tt03">
   <rect width="595.276" height="841.89" id="svg_1"/>
  </clipPath>
 </defs>
 <g>
  <title>background</title>
  <rect x="-1" y="-1" width="386.276" height="123.89" id="canvas_background" fill="none"/>
 </g>
 <g>
  <title>Layer 1</title>
  <g clip-path="url(#_clipPath_LLpvIslJZnL94rLkyiZEEOkrFG30Tt03)" id="svg_2" stroke="null">
   <path d="m54.05669,13.27443q20.32532,3.27664 34.8438,9.83068c14.51779,6.55403 17.42189,10.92288 31.93969,19.66134c14.51847,8.73846 30.00476,21.84577 44.52255,31.67644c14.51848,9.83067 22.26162,21.84577 36.77941,25.1224c14.51848,3.27741 17.4219,4.36962 26.13285,-1.09221q8.71095,-5.46106 15.48628,-12.01509l12.58218,2.18442q8.71095,7.64625 -8.71095,16.38471c-17.42189,8.73846 -27.10065,10.92288 -36.77941,10.92288c-9.67875,0 -25.16504,-4.36961 -37.74722,-13.1073c-12.58218,-8.73846 -17.42189,-14.20029 -27.10065,-21.84577c-9.67876,-7.64625 -19.35751,-18.56914 -33.87599,-27.3076c-14.51779,-8.73846 -20.32532,-16.3847 -33.87531,-21.84576c-13.55066,-5.46183 -41.61913,-19.66135 -24.19723,-18.56914z" fill="rgb(206,49,49)" stroke-linecap="square" stroke-miterlimit="3" id="svg_3" stroke="rgb(206,49,49)"/>
   <text transform="matrix(0.6796402335166931,0,0,0.7670025825500488,26.7269997702498,477.8735222710294) " fill="#000000" font-style="normal" font-size="145px" font-weight="400" font-family="'Oleo Script Swash Caps'" id="svg_4" stroke="null" y="-522.814406" x="-44.141">San Local</text>
  </g>
 </g>
</svg>