<?xml version="1.0" encoding="UTF-8" standalone="no"?><!-- Generator: Gravit.io --><svg xmlns="http://www.w3.org/2000/svg" xmlns:xlink="http://www.w3.org/1999/xlink" style="isolation:isolate" viewBox="0 0 595.276 841.89" width="595.276pt" height="841.89pt"><defs><clipPath id="_clipPath_LLpvIslJZnL94rLkyiZEEOkrFG30Tt03"><rect width="595.276" height="841.89"/></clipPath></defs><g clip-path="url(#_clipPath_LLpvIslJZnL94rLkyiZEEOkrFG30Tt03)"><path d=" M 111.08 383.084 Q 140.986 387.356 162.348 395.901 C 183.709 404.446 187.982 410.142 209.343 421.535 C 230.705 432.928 253.491 450.017 274.852 462.834 C 296.214 475.651 307.607 491.316 328.968 495.588 C 350.33 499.861 354.602 501.285 367.419 494.164 Q 380.236 487.044 390.205 478.499 L 408.718 481.347 Q 421.535 491.316 395.901 502.709 C 370.267 514.102 356.026 516.95 341.785 516.95 C 327.544 516.95 304.758 511.253 286.245 499.861 C 267.732 488.468 260.611 481.347 246.37 471.379 C 232.129 461.41 217.888 447.169 196.526 435.776 C 175.165 424.383 166.62 414.414 146.683 407.294 C 126.745 400.173 85.446 381.66 111.08 383.084 Z " fill="rgb(206,49,49)" vector-effect="non-scaling-stroke" stroke-width="1" stroke="rgb(206,49,49)" stroke-linejoin="miter" stroke-linecap="square" stroke-miterlimit="3"/><text transform="matrix(1,0,0,1,26.727,466.003)" style="font-family:'Oleo Script Swash Caps';font-weight:400;font-size:145px;font-style:normal;fill:#000000;stroke:none;">San Local</text></g></svg>